<?xml version="1.0" encoding="utf-8"?>
<!-- Generator: Adobe Illustrator 16.0.4, SVG Export Plug-In . SVG Version: 6.00 Build 0)  -->
<!DOCTYPE svg PUBLIC "-//W3C//DTD SVG 1.1//EN" "http://www.w3.org/Graphics/SVG/1.1/DTD/svg11.dtd">
<svg version="1.1" id="Layer_1" xmlns="http://www.w3.org/2000/svg" xmlns:xlink="http://www.w3.org/1999/xlink" x="0px" y="0px"
	 width="512px" height="512px" viewBox="0 0 512 512" enable-background="new 0 0 512 512" xml:space="preserve">
<g>
	
		<image overflow="visible" opacity="0.75" width="215" height="84" xlink:href="120A9D69D827F5C4.png"  transform="matrix(1 0 0 1 148 232)">
	</image>
	<g>
		<path fill="none" stroke="#FF0000" stroke-width="8" stroke-miterlimit="10" d="M339.043,256.289
			c-46.061,46.062-120.605,46.062-166.667,0"/>
	</g>
</g>
<g>
	
		<image overflow="visible" opacity="0.75" width="216" height="85" xlink:href="120A9D69D827F5C3.png"  transform="matrix(1 0 0 1 -19 196)">
	</image>
	<g>
		<path fill="none" stroke="#FF0000" stroke-width="8" stroke-miterlimit="10" d="M5.71,256.289
			c46.062-46.061,120.606-46.061,166.667,0"/>
	</g>
</g>
<g>
	
		<image overflow="visible" opacity="0.75" width="215" height="85" xlink:href="120A9D69D827F5CE.png"  transform="matrix(1 0 0 1 315 196)">
	</image>
	<g>
		<path fill="none" stroke="#FF0000" stroke-width="8" stroke-miterlimit="10" d="M339.043,256.289
			c46.062-46.061,120.606-46.061,166.667,0"/>
	</g>
</g>
<g>
	
		<image overflow="visible" opacity="0.75" width="215" height="85" xlink:href="120A9D69D827F5C1.png"  transform="matrix(1 0 0 1 148 196)">
	</image>
	<g>
		<path fill="none" stroke="#FFC100" stroke-width="8" stroke-miterlimit="10" d="M172.376,256.29
			c46.062-46.061,120.607-46.061,166.667,0"/>
	</g>
</g>
<g>
	
		<image overflow="visible" opacity="0.75" width="221" height="87" xlink:href="120A9D69D827F5C2.png"  transform="matrix(1 0 0 1 312 229)">
	</image>
	<g>
		<path fill="none" stroke="#FFC100" stroke-width="8" stroke-linecap="square" stroke-miterlimit="10" d="M505.71,256.289
			c-46.062,46.062-120.605,46.062-166.667,0"/>
	</g>
</g>
<g>
	
		<image overflow="visible" opacity="0.75" width="221" height="87" xlink:href="120A9D69D827F5C0.png"  transform="matrix(1 0 0 1 -21 229)">
	</image>
	<g>
		<path fill="none" stroke="#FFC100" stroke-width="8" stroke-linecap="square" stroke-miterlimit="10" d="M172.376,256.289
			c-46.061,46.062-120.605,46.062-166.667,0"/>
	</g>
</g>
<path fill="none" stroke="#FFC100" stroke-width="8" stroke-linecap="square" stroke-miterlimit="10" d="M255.71,256.289
	c-61.415-61.415-61.415-160.807,0-222.222"/>
<path fill="none" stroke="#FFC100" stroke-width="8" stroke-linecap="square" stroke-miterlimit="10" d="M255.71,34.067
	c61.414,61.417,61.414,160.81,0,222.222"/>
<path fill="none" stroke="#FFC100" stroke-width="8" stroke-linecap="square" stroke-miterlimit="10" d="M255.71,478.512
	c-61.415-61.415-61.415-160.808,0-222.223"/>
<path fill="none" stroke="#FFC100" stroke-width="8" stroke-linecap="square" stroke-miterlimit="10" d="M255.71,256.289
	c61.414,61.417,61.414,160.81,0,222.223"/>
</svg>
